<svg width="385" height="63" viewBox="0 0 385 63" fill="none" xmlns="http://www.w3.org/2000/svg">
<g clip-path="url(#clip0_156_165)">
<path d="M14.3618 2.17178V16.5415H0V30.9112C15.8627 30.9112 28.7235 18.0432 28.7235 2.17178H14.3618Z" fill="#252525"/>
<path d="M45.9536 2.17178H31.5918C31.5918 18.0432 44.4527 30.9112 60.3153 30.9112V16.5415H45.9536V2.17178Z" fill="#252525"/>
<path d="M60.3153 33.7805C44.4527 33.7805 31.5918 46.6484 31.5918 62.5199H45.9536V48.1502H60.3153V33.7805Z" fill="#252525"/>
<path d="M0 33.7805V48.1502H14.3618V62.5199H28.7235C28.7235 46.6484 15.8627 33.7805 0 33.7805Z" fill="#252525"/>
<path d="M30.1574 39.5307C34.1233 39.5307 37.3383 36.314 37.3383 32.3459C37.3383 28.3778 34.1233 25.161 30.1574 25.161C26.1916 25.161 22.9766 28.3778 22.9766 32.3459C22.9766 36.314 26.1916 39.5307 30.1574 39.5307Z" fill="#252525"/>
<path d="M95.02 29.0242C94.4174 28.2985 94.1385 27.5393 93.9376 26.6125L92.7715 21.7054C92.0071 18.4507 90.3221 17.6468 87.2254 17.6468H81.6403V29.0242H78.2646V2.17178H88.6705C94.8582 2.17178 97.5476 5.06358 97.5476 9.64692C97.5476 13.8283 94.5346 16.2791 91.2371 16.4019V16.4801C93.8093 16.8039 95.2934 18.0488 95.9797 20.8624L97.3076 26.2887C97.5476 27.2936 98.072 28.2594 98.6746 29.0242H95.02ZM88.5924 5.0245H81.6403V14.7941H88.6315C92.2861 14.7941 93.932 13.0635 93.932 9.80882C93.932 6.7942 92.2861 5.0245 88.5868 5.0245H88.5924Z" fill="#252525"/>
<path d="M114.917 23.235L117.768 24.0389C116.842 27.9356 113.751 29.5043 110.175 29.5043C104.668 29.5043 101.214 25.8477 101.214 19.0536C101.214 12.2595 104.751 8.44102 110.175 8.44102C115.196 8.44102 117.969 12.0976 117.969 16.882C117.969 18.0487 117.768 19.0536 117.568 19.5728H104.389C104.55 24.078 106.559 26.8916 110.175 26.8916C112.585 26.8916 114.315 25.7639 114.917 23.235ZM114.677 17.1667C114.716 16.8038 114.716 16.4018 114.716 16.1227C114.716 13.3091 113.109 10.9755 110.097 10.9755C106.883 10.9755 104.913 13.2644 104.472 17.1667H114.677Z" fill="#252525"/>
<path d="M123.994 23.1119C124.318 25.4008 126.366 26.9695 128.938 26.9695C131.51 26.9695 133.318 25.9256 133.318 23.793C133.318 18.4895 121.869 22.3862 121.869 14.4644C121.869 10.685 124.882 8.4352 128.899 8.4352C133.279 8.4352 135.767 10.3668 136.169 14.0234L133.078 14.4644C132.877 12.3319 131.549 10.9697 128.899 10.9697C126.449 10.9697 124.96 12.1756 124.96 14.2244C124.96 19.4888 136.409 15.3912 136.409 23.553C136.409 27.3715 133.195 29.5041 128.938 29.5041C124.681 29.5041 121.584 27.4943 120.981 23.9549L123.994 23.1119Z" fill="#252525"/>
<path d="M143.752 12.7843C144.433 10.5736 146.927 8.44102 150.101 8.44102C155.804 8.44102 158.538 12.9853 158.538 18.9754C158.538 24.9656 155.285 29.5099 149.9 29.5099C146.927 29.5099 144.918 28.0249 144.198 26.3334V36.985H140.906V8.92671H143.356L143.757 12.7843H143.752ZM144.193 21.1471C144.193 25.2057 146.882 26.8972 149.415 26.8972C152.752 26.8972 155.201 24.3236 155.201 18.9754C155.201 13.6273 153.031 11.0983 149.415 11.0983C146.882 11.0983 144.193 13.0299 144.193 17.5686V21.1471Z" fill="#252525"/>
<path d="M171.019 29.5041C165.674 29.5041 162.02 25.7246 162.02 18.9696C162.02 12.2146 165.674 8.4352 171.019 8.4352C176.365 8.4352 180.019 12.2146 180.019 18.9696C180.019 25.7246 176.365 29.5041 171.019 29.5041ZM171.019 11.0144C167.326 11.0144 165.356 13.7889 165.356 18.9752C165.356 24.1615 167.326 26.936 171.019 26.936C174.713 26.936 176.683 24.1615 176.683 18.9752C176.683 13.7889 174.713 11.0144 171.019 11.0144Z" fill="#252525"/>
<path d="M187.451 12.8234C188.578 10.0488 191.028 8.44102 194.202 8.44102C197.857 8.44102 200.39 10.8527 200.39 14.9113V29.0186H197.098V15.5924C197.098 13.0188 195.854 11.3328 193.159 11.3328C190.308 11.3328 187.897 12.9797 187.897 17.3621V29.0186H184.605V8.92671H187.055L187.457 12.8234H187.451Z" fill="#252525"/>
<path d="M207.192 23.1119C207.515 25.4008 209.563 26.9695 212.135 26.9695C214.707 26.9695 216.515 25.9256 216.515 23.793C216.515 18.4895 205.066 22.3862 205.066 14.4644C205.066 10.685 208.079 8.4352 212.096 8.4352C216.476 8.4352 218.965 10.3668 219.366 14.0234L216.275 14.4644C216.074 12.3319 214.746 10.9697 212.096 10.9697C209.647 10.9697 208.157 12.1756 208.157 14.2244C208.157 19.4888 219.606 15.3912 219.606 23.553C219.606 27.3715 216.392 29.5041 212.135 29.5041C207.878 29.5041 204.781 27.4943 204.179 23.9549L207.192 23.1119Z" fill="#252525"/>
<path d="M225.688 5.22535C224.321 5.22535 223.316 4.1814 223.316 2.81365C223.316 1.44591 224.321 0.401955 225.688 0.401955C227.055 0.401955 228.059 1.44591 228.059 2.81365C228.059 4.1814 227.055 5.22535 225.688 5.22535ZM227.339 8.92663V29.0241H224.047V8.92663H227.339Z" fill="#252525"/>
<path d="M236.277 12.2204C237.041 9.9315 239.491 8.44094 242.18 8.44094C247.882 8.44094 250.616 12.9852 250.616 18.9754C250.616 24.9655 247.364 29.5098 241.979 29.5098C239.005 29.5098 236.556 27.9411 235.914 25.2056L235.591 29.0241H232.979V0H236.271V12.2204H236.277ZM236.277 20.5832C236.277 25.2056 238.966 26.8915 241.499 26.8915C244.836 26.8915 247.285 24.3179 247.285 18.9698C247.285 13.6216 245.115 11.0927 241.499 11.0927C238.966 11.0927 236.277 13.0243 236.277 17.6076V20.5832Z" fill="#252525"/>
<path d="M262.267 28.7003C261.503 29.1413 260.298 29.4261 259.215 29.4261C256.682 29.4261 254.997 28.2202 254.997 25.2447V0H258.289V24.8818C258.289 26.1267 258.853 26.7296 260.097 26.7296C260.699 26.7296 261.341 26.5677 261.905 26.1658L262.267 28.7003Z" fill="#252525"/>
<path d="M277.946 23.235L280.797 24.0389C279.871 27.9356 276.779 29.5043 273.203 29.5043C267.696 29.5043 264.242 25.8477 264.242 19.0536C264.242 12.2595 267.78 8.44102 273.203 8.44102C278.225 8.44102 280.998 12.0976 280.998 16.882C280.998 18.0487 280.797 19.0536 280.596 19.5728H267.417C267.579 24.078 269.587 26.8916 273.203 26.8916C275.613 26.8916 277.343 25.7639 277.946 23.235ZM277.7 17.1667C277.739 16.8038 277.739 16.4018 277.739 16.1227C277.739 13.3091 276.132 10.9755 273.119 10.9755C269.905 10.9755 267.936 13.2644 267.495 17.1667H277.7Z" fill="#252525"/>
<path d="M311.729 21.5042H300.319L297.63 29.0184H294.293L304.219 2.16597H307.957L317.883 29.0184H314.469L311.735 21.5042H311.729ZM301.362 18.6515H310.725L306.066 5.82817H305.988L301.368 18.6515H301.362Z" fill="#252525"/>
<path d="M324.915 2.17178V29.0242H321.539V2.17178H324.915Z" fill="#252525"/>
<path d="M78.2646 62.52V35.6675H94.4565V38.6431H81.6403V47.6088H93.0505V50.5843H81.6403V62.5256H78.2646V62.52Z" fill="#252525"/>
<path d="M110.09 58.7014C109.125 61.5932 106.798 63.0056 103.74 63.0056C100.449 63.0056 97.5527 60.9568 97.5527 56.5744V42.4225H100.845V56.2116C100.845 58.7852 102.251 60.3539 104.661 60.3539C107.473 60.3539 109.761 58.4669 109.761 54.0846V42.428H113.097V62.5255H110.486L110.084 58.707L110.09 58.7014Z" fill="#252525"/>
<path d="M129.692 61.7942C128.526 62.5199 126.958 63 125.552 63C121.814 63 119.565 61.1912 119.565 57.4509V44.9513H116.675V42.4168H119.565V38.1573L122.857 37.6325V42.4168H128.883V44.9513H122.857V57.1327C122.857 59.3434 124.062 60.2254 125.792 60.2254C127.12 60.2254 127.962 59.9016 129.084 59.1815L129.686 61.7942H129.692Z" fill="#252525"/>
<path d="M145.369 58.7014C144.404 61.5932 142.077 63.0056 139.02 63.0056C135.728 63.0056 132.832 60.9568 132.832 56.5744V42.4225H136.124V56.2116C136.124 58.7852 137.53 60.3539 139.94 60.3539C142.752 60.3539 145.04 58.4669 145.04 54.0846V42.428H148.377V62.5255H145.765L145.364 58.707L145.369 58.7014Z" fill="#252525"/>
<path d="M164.458 45.5151C164.095 45.437 163.415 45.3923 162.851 45.3923C159.676 45.3923 157.35 47.9659 157.35 52.3483V62.5198H154.058V42.4223H156.669L157.11 47.5695C157.913 43.9911 160.926 41.3784 164.664 42.0595L164.463 45.5151H164.458Z" fill="#252525"/>
<path d="M180.276 56.7307L183.127 57.5346C182.201 61.4313 179.11 63 175.533 63C170.026 63 166.572 59.3434 166.572 52.5493C166.572 45.7553 170.11 41.9368 175.533 41.9368C180.555 41.9368 183.328 45.5934 183.328 50.3777C183.328 51.5445 183.127 52.5493 182.926 53.0685H169.747C169.909 57.5737 171.917 60.3874 175.533 60.3874C177.943 60.3874 179.673 59.2597 180.276 56.7307ZM180.03 50.6624C180.069 50.2995 180.069 49.8976 180.069 49.6185C180.069 46.8048 178.462 44.4713 175.449 44.4713C172.236 44.4713 170.266 46.7602 169.825 50.6624H180.03Z" fill="#252525"/>
<path d="M199.151 62.52V35.6675H215.343V38.6431H202.527V47.6088H213.937V50.5843H202.527V62.5256H199.151V62.52Z" fill="#252525"/>
<path d="M226.859 63.0001C221.514 63.0001 217.859 59.2207 217.859 52.4657C217.859 45.7107 221.514 41.9313 226.859 41.9313C232.204 41.9313 235.859 45.7107 235.859 52.4657C235.859 59.2207 232.204 63.0001 226.859 63.0001ZM226.859 44.5105C223.166 44.5105 221.196 47.285 221.196 52.4713C221.196 57.6576 223.166 60.4321 226.859 60.4321C230.553 60.4321 232.522 57.6576 232.522 52.4713C232.522 47.285 230.553 44.5105 226.859 44.5105Z" fill="#252525"/>
<path d="M252.754 58.7014C251.789 61.5932 249.462 63.0056 246.405 63.0056C243.113 63.0056 240.217 60.9568 240.217 56.5744V42.4225H243.509V56.2116C243.509 58.7852 244.915 60.3539 247.325 60.3539C250.137 60.3539 252.425 58.4669 252.425 54.0846V42.428H255.761V62.5255H253.15L252.748 58.707L252.754 58.7014Z" fill="#252525"/>
<path d="M264.287 46.3191C265.414 43.5446 267.863 41.9368 271.038 41.9368C274.693 41.9368 277.226 44.3485 277.226 48.407V62.5144H273.934V49.0881C273.934 46.5145 272.69 44.8286 269.995 44.8286C267.144 44.8286 264.733 46.4754 264.733 50.8578V62.5144H261.441V42.4169H263.891L264.293 46.3135L264.287 46.3191Z" fill="#252525"/>
<path d="M296.313 58.7012C295.309 61.7549 292.698 63.0054 289.847 63.0054C285.467 63.0054 281.65 59.667 281.65 52.7948C281.65 45.9226 284.903 41.9422 290.17 41.9422C293.384 41.9422 295.315 43.55 295.995 45.1578V33.5012H299.293V62.5253H296.682L296.319 58.7068L296.313 58.7012ZM295.995 50.2156C295.995 46.157 293.022 44.5493 290.695 44.5493C287.481 44.5493 284.993 47 284.993 52.7501C284.993 57.7354 287.163 60.3481 290.656 60.3481C293.228 60.3481 296.001 58.5784 296.001 53.956V50.2156H295.995Z" fill="#252525"/>
<path d="M318.715 58.5787C318.715 59.8627 319.278 60.3484 320.199 60.3484C320.64 60.3484 321.164 60.1474 321.443 59.9074L321.644 62.3581C321.12 62.721 320.154 62.922 319.435 62.922C317.906 62.922 316.823 62.28 316.221 61.1132C315.981 60.6722 315.819 60.1474 315.696 59.5445C314.893 61.7552 312.404 62.9611 309.871 62.9611C306.334 62.9611 303.645 60.9122 303.645 57.2947C303.645 53.3143 306.858 50.7798 313.727 50.7798C314.168 50.7798 314.893 50.8188 315.613 50.8579V48.4853C315.613 46.0736 314.285 44.6277 311.634 44.6277C308.984 44.6277 307.779 46.0345 307.695 48.2453L304.481 47.6814C304.922 43.941 307.974 41.9313 311.835 41.9313C316.053 41.9313 318.704 43.902 318.704 48.1224V58.5731L318.715 58.5787ZM315.618 53.3143C315.094 53.2752 314.413 53.2361 313.732 53.2361C309.274 53.2361 306.903 54.442 306.903 57.1775C306.903 59.1481 308.27 60.4321 310.641 60.4321C313.13 60.4321 315.624 58.8634 315.624 55.0058V53.3199L315.618 53.3143Z" fill="#252525"/>
<path d="M335.264 61.7942C334.098 62.5199 332.53 63 331.124 63C327.386 63 325.137 61.1912 325.137 57.4509V44.9513H322.247V42.4168H325.137V38.1573L328.429 37.6325V42.4168H334.455V44.9513H328.429V57.1327C328.429 59.3434 329.634 60.2254 331.364 60.2254C332.692 60.2254 333.534 59.9016 334.656 59.1815L335.259 61.7942H335.264Z" fill="#252525"/>
<path d="M340.587 38.7211C339.22 38.7211 338.216 37.6771 338.216 36.3094C338.216 34.9417 339.22 33.8977 340.587 33.8977C341.954 33.8977 342.958 34.9417 342.958 36.3094C342.958 37.6771 341.954 38.7211 340.587 38.7211ZM342.233 42.4224V62.5199H338.941V42.4224H342.233Z" fill="#252525"/>
<path d="M355.63 63.0001C350.284 63.0001 346.63 59.2207 346.63 52.4657C346.63 45.7107 350.284 41.9313 355.63 41.9313C360.975 41.9313 364.63 45.7107 364.63 52.4657C364.63 59.2207 360.975 63.0001 355.63 63.0001ZM355.63 44.5105C351.936 44.5105 349.966 47.285 349.966 52.4713C349.966 57.6576 351.936 60.4321 355.63 60.4321C359.323 60.4321 361.293 57.6576 361.293 52.4713C361.293 47.285 359.323 44.5105 355.63 44.5105Z" fill="#252525"/>
<path d="M372.061 46.3191C373.188 43.5446 375.638 41.9368 378.813 41.9368C382.467 41.9368 385 44.3485 385 48.407V62.5144H381.708V49.0881C381.708 46.5145 380.464 44.8286 377.769 44.8286C374.918 44.8286 372.508 46.4754 372.508 50.8578V62.5144H369.216V42.4169H371.665L372.067 46.3135L372.061 46.3191Z" fill="#252525"/>
</g>
<defs>
<clipPath id="clip0_156_165">
<rect width="385" height="63" fill="white"/>
</clipPath>
</defs>
</svg>
